:SAMPLES-PER-SECOND 30
:FULLY-SPECIFIED
:DEGREES
471
root  -2.98702 40.9574 0.804154 -171.029 -88.8902 173.786
RightUpLeg  1.90498 -1.62183 -2.5558
RightLeg  -3.57759 -17.9362 1.17248
RightFoot  0.512077 -0.40681 3.865
RightToes  -3.11842e-008 1.75238e-005 3.56266e-009
Spine  -3.98267 4.06931 0.697405
Spine1  -0.653123 4.8446 -4.48453
HEad  -9.59795 -15.3272 7.81906
LeftShoulder1  3.17057 -6.3835 -25.9415
LeftArm  4.8247 45.2685 -43.1262
LeftForeArm  141.866 -62.5924 -158.214
LeftHand  0.139282 -5.41237 -1.18287
RightShoulder  3.66521 7.84342 26.271
RightArm  0.544522 10.3267 34.9071
RightForeArm  53.3281 75.9683 118.456
RightHand  0.128136 0.330563 2.56186
LeftUpLeg  1.08908 0.433054 1.41346
LeftLeg  -3.82229 16.2199 -1.60076
LeftFoot  0.704075 0.19749 -1.96897
LeftToes  4.7713e-008 1.46693e-008 1.32589e-009
472
root  -2.94611 40.9618 0.805078 -162.59 -89.1949 165.542
RightUpLeg  1.71406 -1.63622 -2.57505
RightLeg  -3.67517 -18.2388 1.26034
RightFoot  0.590186 -0.411761 3.93418
RightToes  -3.11842e-008 1.75238e-005 3.56266e-009
Spine  -2.85654 4.49566 1.57933
Spine1  -2.63352 5.33727 -5.80492
HEad  -9.8213 -18.5672 9.70757
LeftShoulder1  3.17031 -6.4808 -25.6091
LeftArm  4.08921 44.1731 -42.614
LeftForeArm  140.656 -62.1608 -158.472
LeftHand  0.160823 -5.07426 -1.47756
RightShoulder  3.57477 7.91964 25.209
RightArm  -7.00593 17.0956 34.5074
RightForeArm  21.6422 77.3306 97.9107
RightHand  0.0654663 -1.14258 2.00465
LeftUpLeg  0.813051 0.359628 1.3939
LeftLeg  -3.91546 16.0033 -1.6072
LeftFoot  0.841603 0.190748 -1.85324
LeftToes  4.7713e-008 1.46693e-008 1.32589e-009
473
root  -2.91327 40.9652 0.803254 -157.957 -89.8912 161.1
RightUpLeg  1.6435 -1.67218 -2.57388
RightLeg  -3.89829 -18.8885 1.44622
RightFoot  0.730351 -0.408056 3.86628
RightToes  -3.11842e-008 1.75238e-005 3.56266e-009
Spine  -2.17102 4.69911 2.61376
Spine1  -3.99321 5.62533 -7.33053
HEad  -10.7274 -21.2093 11.6471
LeftShoulder1  3.06638 -6.29219 -25.143
LeftArm  3.21472 42.3356 -42.2209
LeftForeArm  138.875 -62.2153 -158.26
LeftHand  0.131335 -4.94754 -1.1754
RightShoulder  3.35396 7.64085 23.9552
RightArm  -14.1073 23.9929 34.3081
RightForeArm  -18.9794 76.2036 65.1701
RightHand  0.023453 -1.96098 1.14833
LeftUpLeg  0.452167 0.316968 1.42589
LeftLeg  -3.87771 15.366 -1.56954
LeftFoot  0.978472 0.191785 -1.85451
LeftToes  4.7713e-008 1.46693e-008 1.32589e-009
474
root  -2.89629 40.9693 0.794427 -24.3944 -89.3811 27.6617
RightUpLeg  1.61795 -1.68978 -2.57613
RightLeg  -4.00606 -19.5379 1.53551
RightFoot  0.748212 -0.412059 3.91504
RightToes  -3.11842e-008 1.75238e-005 3.56266e-009
Spine  -1.00535 5.01927 3.30238
Spine1  -6.12194 5.90508 -8.35375
HEad  -10.7795 -23.4818 12.3602
LeftShoulder1  3.15066 -6.49214 -25.37
LeftArm  2.52532 40.6683 -40.9663
LeftForeArm  136.665 -62.4926 -157.814
LeftHand  0.0895868 -4.92119 -0.713197
RightShoulder  3.10373 7.40282 22.2125
RightArm  -20.8887 29.176 34.003
RightForeArm  -48.3438 70.9494 40.3751
RightHand  -0.0135917 -3.42547 0.324361
LeftUpLeg  0.303828 0.289636 1.43328
LeftLeg  -4.08243 14.7347 -1.62518
LeftFoot  1.18015 0.191279 -1.82501
LeftToes  4.7713e-008 1.46693e-008 1.32589e-009
475
root  -2.87979 40.9694 0.778422 -2.44135 -88.2936 5.9173
RightUpLeg  1.61462 -1.77924 -2.589
RightLeg  -4.23611 -20.5694 1.77586
RightFoot  0.797632 -0.401511 3.71229
RightToes  -3.11842e-008 1.75238e-005 3.56266e-009
Spine  0.0154418 4.9674 4.20888
Spine1  -7.92163 5.84425 -9.74271
HEad  -11.8712 -25.6611 13.1746
LeftShoulder1  3.14483 -6.44311 -25.4703
LeftArm  1.67501 39.3367 -39.8325
LeftForeArm  135.426 -62.6877 -157.525
LeftHand  0.176295 -4.80499 -1.70815
RightShoulder  2.80794 6.93007 20.572
RightArm  -26.6412 33.7499 33.9997
RightForeArm  -62.2861 63.1444 26.4292
RightHand  -0.0288885 -4.40717 -0.505205
LeftUpLeg  -0.150786 0.127335 1.39557
LeftLeg  -3.94579 13.8009 -1.44665
LeftFoot  1.28553 0.196416 -1.87365
LeftToes  4.7713e-008 1.46693e-008 1.32589e-009
476
root  -2.88067 40.9707 0.763246 -4.49844 -87.467 8.19843
RightUpLeg  1.44064 -1.82251 -2.67342
RightLeg  -4.14491 -21.3127 1.75697
RightFoot  0.705128 -0.418467 3.95552
RightToes  -3.11842e-008 1.75238e-005 3.56266e-009
Spine  0.851682 5.00158 5.17092
Spine1  -9.61588 5.87622 -11.4181
HEad  -12.5417 -26.9569 13.4758
LeftShoulder1  3.06413 -6.2289 -25.331
LeftArm  1.12031 38.3001 -38.9928
LeftForeArm  135.016 -62.7835 -157.4
LeftHand  0.147637 -4.64114 -1.4179
RightShoulder  2.67041 6.6545 19.9036
RightArm  -31.9703 37.2175 33.5607
RightForeArm  -69.3797 54.6873 18.9338
RightHand  -0.0339996 -4.91255 -1.11991
LeftUpLeg  -0.421519 -0.0399756 1.26498
LeftLeg  -4.09539 13.1883 -1.4308
LeftFoot  1.4625 0.196197 -1.8266
LeftToes  4.7713e-008 1.46693e-008 1.32589e-009
477
root  -2.91454 40.9713 0.746441 -4.06937 -86.5794 7.79736
RightUpLeg  1.63107 -1.92839 -2.73409
RightLeg  -4.23736 -22.0679 1.85607
RightFoot  0.58708 -0.420354 4.06073
RightToes  -3.11842e-008 1.75238e-005 3.56266e-009
Spine  0.760809 4.91895 6.2586
Spine1  -9.88904 5.8743 -13.0208
HEad  -12.6604 -26.9428 13.6779
LeftShoulder1  3.04082 -6.11956 -25.4496
LeftArm  -0.0240271 37.256 -38.6756
LeftForeArm  134.71 -62.9445 -157.225
LeftHand  0.154316 -4.50679 -1.52279
RightShoulder  2.66169 6.71447 19.6398
RightArm  -36.9695 39.8348 32.9624
RightForeArm  -70.9586 46.4119 14.3877
RightHand  -0.0303586 -4.83085 -1.41042
LeftUpLeg  -0.381689 -0.117414 1.19807
LeftLeg  -4.33285 12.401 -1.43858
LeftFoot  1.59017 0.206746 -1.90954
LeftToes  4.7713e-008 1.46693e-008 1.32589e-009
478
root  -2.94206 40.9689 0.734787 -4.74438 -85.9577 8.48355
RightUpLeg  1.75192 -2.10766 -2.86713
RightLeg  -4.24335 -22.4801 1.96286
RightFoot  0.5014 -0.396715 3.85683
RightToes  -3.11842e-008 1.75238e-005 3.56266e-009
Spine  1.09672 5.09173 6.72398
Spine1  -10.619 6.02569 -13.8118
HEad  -12.7936 -27.1203 13.3798
LeftShoulder1  3.1247 -6.17443 -26.1681
LeftArm  -0.870481 36.9594 -38.0416
LeftForeArm  134.861 -62.7129 -157.451
LeftHand  0.172532 -4.76566 -1.67763
RightShoulder  2.54991 6.38436 19.3633
RightArm  -40.9551 40.805 32.9115
RightForeArm  -69.9503 39.8427 11.7774
RightHand  -0.0301807 -5.09222 -1.80316
LeftUpLeg  -0.408794 -0.216884 1.08903
LeftLeg  -4.34206 11.9051 -1.3965
LeftFoot  1.61509 0.218235 -2.05227
LeftToes  4.7713e-008 1.46693e-008 1.32589e-009
479
root  -2.9872 40.9666 0.711907 -4.63565 -85.5231 8.32462
RightUpLeg  1.97222 -2.16534 -2.87711
RightLeg  -4.31065 -22.857 2.03213
RightFoot  0.364195 -0.405752 3.97007
RightToes  -3.11842e-008 1.75238e-005 3.56266e-009
Spine  1.2954 5.33037 7.19716
Spine1  -11.2216 6.24745 -14.6731
HEad  -12.74 -26.9984 12.6298
LeftShoulder1  3.07997 -5.97548 -26.3802
LeftArm  -1.61349 37.0953 -38.3417
LeftForeArm  135.276 -62.3906 -157.776
LeftHand  0.15926 -4.7168 -1.53686
RightShoulder  2.52855 6.24081 19.5364
RightArm  -43.4831 39.7344 33.2538
RightForeArm  -69.2664 35.6101 10.3887
RightHand  -0.0286113 -5.42062 -2.41446
LeftUpLeg  -0.372641 -0.18238 1.09731
LeftLeg  -4.25854 11.4431 -1.38723
LeftFoot  1.53855 0.21592 -1.99848
LeftToes  4.7713e-008 1.46693e-008 1.32589e-009
480
root  -3.02664 40.9635 0.685423 -4.68359 -85.2779 8.33261
RightUpLeg  2.07423 -2.20359 -2.8644
RightLeg  -4.23439 -23.0635 2.03616
RightFoot  0.255313 -0.392382 3.8428
RightToes  -3.11842e-008 1.75238e-005 3.56266e-009
Spine  1.30074 5.49705 7.65144
Spine1  -11.5458 6.41522 -15.4827
HEad  -11.8791 -26.7595 11.6455
LeftShoulder1  2.9774 -5.65499 -26.3955
LeftArm  -2.75555 37.6172 -39.2188
LeftForeArm  135.209 -62.0433 -158.075
LeftHand  0.1799 -4.52594 -1.81849
RightShoulder  2.68151 6.57112 20.2456
RightArm  -44.5715 37.8499 33.5132
RightForeArm  -68.6253 32.3624 9.43633
RightHand  -0.0529084 -4.41557 -3.85608
LeftUpLeg  -0.36867 -0.178043 1.0997
LeftLeg  -4.09817 11.2137 -1.32948
LeftFoot  1.46063 0.217908 -2.02284
LeftToes  4.7713e-008 1.46693e-008 1.32589e-009
481
root  -3.08843 40.9617 0.64782 -4.45795 -85.0683 7.97699
RightUpLeg  2.38733 -2.2398 -2.81747
RightLeg  -4.32507 -23.221 2.11901
RightFoot  0.129749 -0.389866 3.89044
RightToes  -3.11842e-008 1.75238e-005 3.56266e-009
Spine  1.11771 5.64253 7.74378
Spine1  -11.6623 6.54702 -15.7798
HEad  -11.7382 -26.6971 10.5775
LeftShoulder1  2.86264 -5.33041 -26.2877
LeftArm  -4.06497 38.3333 -40.754
LeftForeArm  135.77 -62.078 -158.095
LeftHand  0.190661 -4.60966 -1.92388
RightShoulder  2.8876 6.98488 21.2378
RightArm  -43.6672 35.851 33.5916
RightForeArm  -66.8687 28.6176 8.41154
RightHand  -0.0672046 -4.22802 -4.80609
LeftUpLeg  -0.181287 -0.072009 1.19398
LeftLeg  -4.03426 10.8659 -1.32921
LeftFoot  1.37591 0.220745 -2.06475
LeftToes  4.7713e-008 1.46693e-008 1.32589e-009
482
root  -3.13608 40.9574 0.61811 -5.5387 -85.0864 8.97733
RightUpLeg  2.47221 -2.34887 -2.88809
RightLeg  -4.14363 -23.0798 2.08906
RightFoot  -0.0584422 -0.383954 3.88025
RightToes  -3.11842e-008 1.75238e-005 3.56266e-009
Spine  0.265767 5.79505 7.59939
Spine1  -10.6668 6.78438 -15.6007
HEad  -11.9238 -26.0048 9.72513
LeftShoulder1  2.80736 -5.11962 -26.442
LeftArm  -5.99824 39.2527 -42.5155
LeftForeArm  136.058 -61.7756 -158.38
LeftHand  0.19514 -4.47127 -2.01171
RightShoulder  2.93583 7.00154 21.671
RightArm  -42.3698 34.3741 34.6242
RightForeArm  -65.9136 25.8869 7.70033
RightHand  -0.0605338 -4.44553 -5.00032
LeftUpLeg  0.0541667 -0.0588212 1.16477
LeftLeg  -4.16989 10.8668 -1.3744
LeftFoot  1.34644 0.219525 -2.04111
LeftToes  4.7713e-008 1.46693e-008 1.32589e-009
